<?xml version="1.0" encoding="utf-8"?>
<!-- Generator: Adobe Illustrator 23.0.3, SVG Export Plug-In . SVG Version: 6.00 Build 0)  -->
<svg version="1.1" id="Layer_1" xmlns="http://www.w3.org/2000/svg" xmlns:xlink="http://www.w3.org/1999/xlink" x="0px" y="0px"
	 viewBox="0 0 207.2 51.7" style="enable-background:new 0 0 207.2 51.7;" xml:space="preserve">
<style type="text/css">
	.st0{display:none;fill:none;}
	.st1{fill:#FFFFFF;}
</style>
<rect y="6" class="st0" width="207.2" height="51.7"/>
<g id="XMLID_95_">
	<path id="XMLID_99_" class="st1" d="M45.3,33L45.3,33L45.3,33c2.4-3.7,3.9-8.2,3.9-13c0-1.3-0.1-2.6-0.3-3.8c-0.3-2.7-2.3-4-3.8-4
		c-2.1,0-4,1.7-3.5,5.4l0,0c0.1,0.8,0.2,1.7,0.2,2.5c-0.1,9-7.6,16.3-16.6,16.1c-8.8-0.2-16-7.4-16-16.3c0-4.2,1.6-8.1,4.3-11l0,0
		c0,0,2.1-2,2.1-3.4c0-2-1.7-3.7-3.8-3.7c-0.9,0-2,0.4-2.9,1.3l0,0C4.5,7.4,1.8,13.4,1.8,19.9c0,12.9,10.2,23.4,22.9,23.8H26
		c12.3,0.1,16.7,6.2,16.7,6.2c-2.2-8.3,1-14.4,2.2-16.3C45,33.4,45.2,33.2,45.3,33z"/>
	<path id="XMLID_96_" class="st1" d="M25.5,10.3c-5.3,0-9.6,4.3-9.6,9.6s4.3,9.6,9.6,9.6s9.6-4.3,9.6-9.6S30.8,10.3,25.5,10.3z
		 M28.7,20.3l-4.8,3.1c-0.2,0.1-0.4,0-0.4-0.2l-0.1-6.4c0-0.2,0.2-0.4,0.4-0.2l4.9,3.2C28.9,19.9,28.9,20.2,28.7,20.3z"/>
</g>
<g>
	<path class="st1" d="M82.4,35.2c-1.2-0.6-2.1-1.6-2.7-2.8s-1-2.6-1-4.2s0.3-3,1-4.2c0.6-1.2,1.5-2.1,2.7-2.7s2.5-1,4.1-1
		s2.9,0.3,4.1,1c1.2,0.6,2.1,1.6,2.7,2.7c0.6,1.2,0.9,2.6,0.9,4.2s-0.3,3-0.9,4.2s-1.5,2.1-2.7,2.8c-1.2,0.6-2.5,1-4.1,1
		S83.6,35.9,82.4,35.2z M89.3,32c0.7-0.8,1-2,1-3.7c0-1.6-0.3-2.8-1-3.6c-0.7-0.8-1.6-1.3-2.8-1.3c-1.2,0-2.2,0.4-2.9,1.3
		c-0.7,0.8-1,2-1,3.6s0.3,2.8,1,3.7c0.7,0.8,1.6,1.2,2.8,1.2C87.7,33.2,88.7,32.8,89.3,32z"/>
	<path class="st1" d="M108.3,20.8c0.3-0.2,0.6-0.3,0.9-0.3c0.5,0,0.9,0.2,1.3,0.5s0.6,0.7,0.6,1.2c0,0.2-0.1,0.5-0.2,0.7l-5.7,12
		c-0.2,0.4-0.4,0.7-0.8,0.9c-0.3,0.2-0.7,0.3-1.1,0.3s-0.8-0.1-1.1-0.3c-0.4-0.2-0.6-0.5-0.8-0.9l-5.8-12c-0.1-0.2-0.2-0.4-0.2-0.7
		c0-0.5,0.2-0.9,0.6-1.2c0.4-0.3,0.9-0.5,1.4-0.5c0.7,0,1.3,0.4,1.6,1.1l4.3,9.6l4.3-9.5C107.8,21.2,108.1,21,108.3,20.8z"/>
	<path class="st1" d="M113.7,17.2c-0.4-0.4-0.6-0.9-0.6-1.5s0.2-1.1,0.6-1.5s1-0.6,1.7-0.6s1.2,0.2,1.7,0.6c0.4,0.4,0.6,0.9,0.6,1.5
		s-0.2,1.1-0.6,1.5s-1,0.6-1.7,0.6C114.6,17.8,114.1,17.6,113.7,17.2z M113.9,35.7c-0.4-0.3-0.5-0.8-0.5-1.4v-12
		c0-0.6,0.2-1.1,0.5-1.4c0.4-0.3,0.8-0.5,1.4-0.5s1,0.2,1.4,0.5s0.6,0.8,0.6,1.4v12c0,0.6-0.2,1.1-0.6,1.4c-0.4,0.3-0.8,0.5-1.4,0.5
		C114.8,36.1,114.3,36,113.9,35.7z"/>
	<path class="st1" d="M134.1,32.2c0.2,0.3,0.3,0.6,0.3,1.1c0,0.6-0.4,1.2-1.1,1.6c-0.7,0.4-1.5,0.7-2.4,0.9s-1.7,0.4-2.5,0.4
		c-2.4,0-4.4-0.7-5.8-2.1c-1.4-1.4-2.1-3.3-2.1-5.8c0-1.5,0.3-2.9,0.9-4.1s1.5-2.1,2.6-2.8c1.1-0.7,2.4-1,3.8-1s2.5,0.3,3.6,0.9
		c1,0.6,1.8,1.4,2.4,2.5c0.6,1.1,0.8,2.4,0.8,3.9c0,0.9-0.4,1.3-1.2,1.3h-9.1c0.1,1.4,0.5,2.5,1.2,3.1c0.7,0.7,1.7,1,3,1
		c0.7,0,1.2-0.1,1.7-0.2c0.5-0.2,1.1-0.4,1.7-0.7c0.6-0.3,1.1-0.5,1.4-0.5C133.6,31.8,133.9,31.9,134.1,32.2z M125.4,24.2
		c-0.6,0.7-1,1.6-1.1,2.8h7c0-1.3-0.4-2.2-0.9-2.9c-0.6-0.7-1.4-1-2.4-1C126.8,23.2,126,23.5,125.4,24.2z"/>
	<path class="st1" d="M158.8,14.5c0.4,0.4,0.5,0.8,0.5,1.4v18.3c0,0.6-0.2,1-0.5,1.4c-0.3,0.3-0.8,0.5-1.3,0.5s-1-0.2-1.3-0.5
		s-0.5-0.8-0.5-1.4V21.5l-5.3,10c-0.2,0.5-0.5,0.8-0.8,1s-0.6,0.3-1,0.3s-0.7-0.1-1-0.3s-0.6-0.5-0.8-1l-5.3-9.8v12.6
		c0,0.6-0.2,1-0.5,1.3s-0.7,0.5-1.3,0.5c-0.5,0-1-0.2-1.3-0.5s-0.5-0.8-0.5-1.4V16c0-0.6,0.2-1.1,0.5-1.4c0.3-0.4,0.8-0.5,1.4-0.5
		c0.8,0,1.4,0.4,1.9,1.3l6.9,13.1l6.8-13.1c0.5-0.9,1.1-1.3,1.8-1.3C158,14,158.5,14.2,158.8,14.5z"/>
	<path class="st1" d="M175,22c1,1,1.5,2.6,1.5,4.8v7.6c0,0.6-0.2,1-0.5,1.3s-0.8,0.5-1.4,0.5c-0.5,0-1-0.2-1.3-0.5s-0.5-0.8-0.5-1.3
		v-0.7c-0.4,0.8-0.9,1.4-1.7,1.9s-1.6,0.7-2.6,0.7s-1.9-0.2-2.8-0.6c-0.8-0.4-1.5-1-2-1.7s-0.7-1.5-0.7-2.4c0-1.1,0.3-2,0.9-2.6
		c0.6-0.6,1.5-1.1,2.8-1.4s3-0.4,5.3-0.4h0.8v-0.7c0-1-0.2-1.7-0.7-2.2c-0.4-0.5-1.1-0.7-2.1-0.7c-0.6,0-1.2,0.1-1.8,0.3
		c-0.6,0.2-1.4,0.4-2.2,0.8c-0.5,0.3-0.9,0.4-1.2,0.4c-0.4,0-0.7-0.1-0.9-0.4s-0.4-0.6-0.4-1.1c0-0.4,0.1-0.7,0.3-0.9
		c0.2-0.3,0.5-0.5,0.9-0.7c0.7-0.4,1.6-0.7,2.6-0.9c1-0.2,2-0.3,3-0.3C172.4,20.4,174,21,175,22z M171.9,32.4c0.7-0.7,1-1.6,1-2.7
		V29h-0.6c-1.4,0-2.5,0.1-3.2,0.2c-0.8,0.1-1.3,0.3-1.6,0.7c-0.3,0.3-0.5,0.7-0.5,1.3c0,0.7,0.2,1.2,0.7,1.6c0.5,0.4,1,0.6,1.7,0.6
		C170.4,33.4,171.2,33.1,171.9,32.4z"/>
	<path class="st1" d="M189.9,34.7c0,0.5-0.2,0.9-0.6,1.1c-0.4,0.3-1,0.4-1.7,0.3l-0.8-0.1c-3.5-0.2-5.2-2.1-5.2-5.6v-6.8H180
		c-0.6,0-1-0.1-1.3-0.4c-0.3-0.2-0.4-0.6-0.4-1.1s0.2-0.8,0.4-1.1c0.3-0.2,0.7-0.4,1.3-0.4h1.5V18c0-0.6,0.2-1,0.5-1.3
		c0.4-0.3,0.8-0.5,1.4-0.5c0.6,0,1,0.2,1.4,0.5s0.5,0.8,0.5,1.3v2.8h2.6c0.6,0,1,0.1,1.3,0.4c0.3,0.2,0.4,0.6,0.4,1.1
		s-0.2,0.8-0.4,1.1c-0.3,0.2-0.7,0.4-1.3,0.4h-2.6v7c0,1.5,0.7,2.3,2.1,2.4l0.8,0.1C189.4,33.3,189.9,33.8,189.9,34.7z"/>
	<path class="st1" d="M204.7,32.2c0.2,0.3,0.3,0.6,0.3,1.1c0,0.6-0.4,1.2-1.1,1.6c-0.7,0.4-1.5,0.7-2.4,0.9s-1.7,0.4-2.5,0.4
		c-2.4,0-4.4-0.7-5.8-2.1c-1.4-1.4-2.1-3.3-2.1-5.8c0-1.5,0.3-2.9,0.9-4.1c0.6-1.2,1.5-2.1,2.6-2.8c1.1-0.7,2.4-1,3.8-1
		c1.4,0,2.5,0.3,3.6,0.9c1,0.6,1.8,1.4,2.4,2.5c0.6,1.1,0.8,2.4,0.8,3.9c0,0.9-0.4,1.3-1.2,1.3h-9.1c0.1,1.4,0.5,2.5,1.2,3.1
		c0.7,0.7,1.7,1,3,1c0.7,0,1.2-0.1,1.7-0.2c0.5-0.2,1.1-0.4,1.7-0.7c0.6-0.3,1.1-0.5,1.4-0.5C204.2,31.8,204.5,31.9,204.7,32.2z
		 M196,24.2c-0.6,0.7-1,1.6-1.1,2.8h7c0-1.3-0.4-2.2-0.9-2.9c-0.6-0.7-1.4-1-2.4-1C197.5,23.2,196.6,23.5,196,24.2z"/>
	<path class="st1" d="M75.8,14.5c0.4,0.4,0.5,0.8,0.5,1.4v18.3c0,0.6-0.2,1-0.5,1.4c-0.3,0.3-0.8,0.5-1.3,0.5s-1-0.2-1.3-0.5
		s-0.5-0.8-0.5-1.4V21.5l-5.3,10c-0.2,0.5-0.5,0.8-0.8,1s-0.6,0.3-1,0.3s-0.7-0.1-1-0.3s-0.6-0.5-0.8-1l-5.3-9.8v12.6
		c0,0.6-0.2,1-0.5,1.3s-0.7,0.5-1.3,0.5c-0.5,0-1-0.2-1.3-0.5s-0.5-0.8-0.5-1.4V16c0-0.6,0.2-1.1,0.5-1.4c0.3-0.4,0.8-0.5,1.4-0.5
		c0.8,0,1.4,0.4,1.9,1.3l6.9,13.1l6.8-13.1c0.5-0.9,1.1-1.3,1.8-1.3C75,14,75.5,14.2,75.8,14.5z"/>
</g>
</svg>
